<?xml version="1.0" encoding="UTF-8"?>
<!--Generator: Apple Native CoreSVG 232.5-->
<!DOCTYPE svg
PUBLIC "-//W3C//DTD SVG 1.1//EN"
       "http://www.w3.org/Graphics/SVG/1.1/DTD/svg11.dtd">
<svg version="1.1" xmlns="http://www.w3.org/2000/svg" xmlns:xlink="http://www.w3.org/1999/xlink" width="3300" height="2200">
 <!--glyph: "", point size: 100.0, font version: "19.2d2e1", template writer version: "128"-->
 <style>.monochrome-0 {-sfsymbols-motion-group:1}
.monochrome-1 {-sfsymbols-motion-group:1}
.monochrome-2 {-sfsymbols-motion-group:1}
.monochrome-3 {-sfsymbols-motion-group:1}
.monochrome-4 {-sfsymbols-motion-group:1}
.monochrome-5 {-sfsymbols-motion-group:1}
.monochrome-6 {opacity:0.0;-sfsymbols-clear-behind:true;-sfsymbols-motion-group:0}
.monochrome-7 {-sfsymbols-motion-group:0}

.multicolor-0:tintColor {-sfsymbols-motion-group:1}
.multicolor-1:tintColor {-sfsymbols-motion-group:1}
.multicolor-2:tintColor {-sfsymbols-motion-group:1}
.multicolor-3:tintColor {-sfsymbols-motion-group:1}
.multicolor-4:tintColor {-sfsymbols-motion-group:1}
.multicolor-5:tintColor {-sfsymbols-motion-group:1}
.multicolor-6:tintColor {opacity:0.0;-sfsymbols-clear-behind:true;-sfsymbols-motion-group:0}
.multicolor-7:tintColor {-sfsymbols-motion-group:0}

.hierarchical-0:secondary {-sfsymbols-motion-group:1}
.hierarchical-1:secondary {-sfsymbols-motion-group:1}
.hierarchical-2:secondary {-sfsymbols-motion-group:1}
.hierarchical-3:secondary {-sfsymbols-motion-group:1}
.hierarchical-4:secondary {-sfsymbols-motion-group:1}
.hierarchical-5:secondary {-sfsymbols-motion-group:1}
.hierarchical-6:primary {opacity:0.0;-sfsymbols-clear-behind:true;-sfsymbols-motion-group:0}
.hierarchical-7:primary {-sfsymbols-motion-group:0}

.SFSymbolsPreviewWireframe {fill:none;opacity:1.0;stroke:black;stroke-width:0.5}
</style>
 <g id="Notes">
  <rect height="2200" id="artboard" style="fill:white;opacity:1" width="3300" x="0" y="0"/>
  <line style="fill:none;stroke:black;opacity:1;stroke-width:0.5;" x1="263" x2="3036" y1="292" y2="292"/>
  <text style="stroke:none;fill:black;font-family:sans-serif;font-size:13;font-weight:bold;" transform="matrix(1 0 0 1 263 322)">Weight/Scale Variations</text>
  <text style="stroke:none;fill:black;font-family:sans-serif;font-size:13;text-anchor:middle;" transform="matrix(1 0 0 1 559.711 322)">Ultralight</text>
  <text style="stroke:none;fill:black;font-family:sans-serif;font-size:13;text-anchor:middle;" transform="matrix(1 0 0 1 856.422 322)">Thin</text>
  <text style="stroke:none;fill:black;font-family:sans-serif;font-size:13;text-anchor:middle;" transform="matrix(1 0 0 1 1153.13 322)">Light</text>
  <text style="stroke:none;fill:black;font-family:sans-serif;font-size:13;text-anchor:middle;" transform="matrix(1 0 0 1 1449.84 322)">Regular</text>
  <text style="stroke:none;fill:black;font-family:sans-serif;font-size:13;text-anchor:middle;" transform="matrix(1 0 0 1 1746.56 322)">Medium</text>
  <text style="stroke:none;fill:black;font-family:sans-serif;font-size:13;text-anchor:middle;" transform="matrix(1 0 0 1 2043.27 322)">Semibold</text>
  <text style="stroke:none;fill:black;font-family:sans-serif;font-size:13;text-anchor:middle;" transform="matrix(1 0 0 1 2339.98 322)">Bold</text>
  <text style="stroke:none;fill:black;font-family:sans-serif;font-size:13;text-anchor:middle;" transform="matrix(1 0 0 1 2636.69 322)">Heavy</text>
  <text style="stroke:none;fill:black;font-family:sans-serif;font-size:13;text-anchor:middle;" transform="matrix(1 0 0 1 2933.4 322)">Black</text>
  <line style="fill:none;stroke:black;opacity:1;stroke-width:0.5;" x1="263" x2="3036" y1="1903" y2="1903"/>
  <g transform="matrix(0.2 0 0 0.2 263 1933)">
   <path d="m46.2402 4.15039c21.5332 0 39.4531-17.8711 39.4531-39.4043s-17.9688-39.4043-39.502-39.4043c-21.4844 0-39.3555 17.8711-39.3555 39.4043s17.9199 39.4043 39.4043 39.4043Zm0-7.42188c-17.7246 0-31.8848-14.209-31.8848-31.9824s14.1113-31.9824 31.8359-31.9824c17.7734 0 32.0312 14.209 32.0312 31.9824s-14.209 31.9824-31.9824 31.9824Zm-17.9688-31.9824c0 2.14844 1.51367 3.61328 3.75977 3.61328h10.498v10.5957c0 2.19727 1.46484 3.71094 3.61328 3.71094 2.24609 0 3.71094-1.51367 3.71094-3.71094v-10.5957h10.5957c2.19727 0 3.71094-1.46484 3.71094-3.61328 0-2.19727-1.51367-3.71094-3.71094-3.71094h-10.5957v-10.5469c0-2.24609-1.46484-3.75977-3.71094-3.75977-2.14844 0-3.61328 1.51367-3.61328 3.75977v10.5469h-10.498c-2.24609 0-3.75977 1.51367-3.75977 3.71094Z"/>
  </g>
  <g transform="matrix(0.2 0 0 0.2 281.506 1933)">
   <path d="m58.5449 14.5508c27.2461 0 49.8047-22.6074 49.8047-49.8047 0-27.2461-22.6074-49.8047-49.8535-49.8047-27.1973 0-49.7559 22.5586-49.7559 49.8047 0 27.1973 22.6074 49.8047 49.8047 49.8047Zm0-8.30078c-23.0469 0-41.4551-18.457-41.4551-41.5039s18.3594-41.5039 41.4062-41.5039 41.5527 18.457 41.5527 41.5039-18.457 41.5039-41.5039 41.5039Zm-22.6562-41.5039c0 2.39258 1.66016 4.00391 4.15039 4.00391h14.3555v14.4043c0 2.44141 1.66016 4.15039 4.05273 4.15039 2.44141 0 4.15039-1.66016 4.15039-4.15039v-14.4043h14.4043c2.44141 0 4.15039-1.61133 4.15039-4.00391 0-2.44141-1.70898-4.15039-4.15039-4.15039h-14.4043v-14.3555c0-2.49023-1.70898-4.19922-4.15039-4.19922-2.39258 0-4.05273 1.70898-4.05273 4.19922v14.3555h-14.3555c-2.49023 0-4.15039 1.70898-4.15039 4.15039Z"/>
  </g>
  <g transform="matrix(0.2 0 0 0.2 304.924 1933)">
   <path d="m74.8535 28.3203c34.8145 0 63.623-28.8086 63.623-63.5742 0-34.8145-28.8574-63.623-63.6719-63.623-34.7656 0-63.5254 28.8086-63.5254 63.623 0 34.7656 28.8086 63.5742 63.5742 63.5742Zm0-9.08203c-30.1758 0-54.4434-24.3164-54.4434-54.4922 0-30.2246 24.2188-54.4922 54.3945-54.4922 30.2246 0 54.541 24.2676 54.541 54.4922 0 30.1758-24.2676 54.4922-54.4922 54.4922Zm-28.8574-54.4922c0 2.58789 1.85547 4.39453 4.58984 4.39453h19.7266v19.7754c0 2.68555 1.85547 4.58984 4.44336 4.58984 2.68555 0 4.54102-1.85547 4.54102-4.58984v-19.7754h19.7754c2.68555 0 4.58984-1.80664 4.58984-4.39453 0-2.73438-1.85547-4.58984-4.58984-4.58984h-19.7754v-19.7266c0-2.73438-1.85547-4.63867-4.54102-4.63867-2.58789 0-4.44336 1.9043-4.44336 4.63867v19.7266h-19.7266c-2.73438 0-4.58984 1.85547-4.58984 4.58984Z"/>
  </g>
  <text style="stroke:none;fill:black;font-family:sans-serif;font-size:13;font-weight:bold;" transform="matrix(1 0 0 1 263 1953)">Design Variations</text>
  <text style="stroke:none;fill:black;font-family:sans-serif;font-size:13;" transform="matrix(1 0 0 1 263 1971)">Symbols are supported in up to nine weights and three scales.</text>
  <text style="stroke:none;fill:black;font-family:sans-serif;font-size:13;" transform="matrix(1 0 0 1 263 1989)">For optimal layout with text and other symbols, vertically align</text>
  <text style="stroke:none;fill:black;font-family:sans-serif;font-size:13;" transform="matrix(1 0 0 1 263 2007)">symbols with the adjacent text.</text>
  <line style="fill:none;stroke:#00AEEF;stroke-width:0.5;opacity:1.0;" x1="776" x2="776" y1="1919" y2="1933"/>
  <g transform="matrix(0.2 0 0 0.2 776 1933)">
   <path d="m16.5527 0.78125c2.58789 0 3.85742-0.976562 4.78516-3.71094l6.29883-17.2363h28.8086l6.29883 17.2363c0.927734 2.73438 2.19727 3.71094 4.73633 3.71094 2.58789 0 4.24805-1.5625 4.24805-4.00391 0-0.830078-0.146484-1.61133-0.537109-2.63672l-22.9004-60.9863c-1.12305-2.97852-3.125-4.49219-6.25-4.49219-3.02734 0-5.07812 1.46484-6.15234 4.44336l-22.9004 61.084c-0.390625 1.02539-0.537109 1.80664-0.537109 2.63672 0 2.44141 1.5625 3.95508 4.10156 3.95508Zm13.4766-28.3691 11.8652-32.8613h0.244141l11.8652 32.8613Z"/>
  </g>
  <line style="fill:none;stroke:#00AEEF;stroke-width:0.5;opacity:1.0;" x1="792.836" x2="792.836" y1="1919" y2="1933"/>
  <text style="stroke:none;fill:black;font-family:sans-serif;font-size:13;font-weight:bold;" transform="matrix(1 0 0 1 776 1953)">Margins</text>
  <text style="stroke:none;fill:black;font-family:sans-serif;font-size:13;" transform="matrix(1 0 0 1 776 1971)">Leading and trailing margins on the left and right side of each symbol</text>
  <text style="stroke:none;fill:black;font-family:sans-serif;font-size:13;" transform="matrix(1 0 0 1 776 1989)">can be adjusted by modifying the x-location of the margin guidelines.</text>
  <text style="stroke:none;fill:black;font-family:sans-serif;font-size:13;" transform="matrix(1 0 0 1 776 2007)">Modifications are automatically applied proportionally to all</text>
  <text style="stroke:none;fill:black;font-family:sans-serif;font-size:13;" transform="matrix(1 0 0 1 776 2025)">scales and weights.</text>
  <g transform="matrix(0.2 0 0 0.2 1289 1933)">
   <path d="m14.209 9.32617 8.49609 8.54492c4.29688 4.3457 9.22852 4.05273 13.8672-1.07422l53.4668-58.9355-4.83398-4.88281-53.0762 58.3984c-1.75781 2.00195-3.41797 2.49023-5.76172 0.146484l-5.85938-5.81055c-2.34375-2.29492-1.80664-4.00391 0.195312-5.81055l57.373-54.0039-4.88281-4.83398-57.959 54.4434c-4.93164 4.58984-5.32227 9.47266-1.02539 13.8184Zm32.0801-90.9668c-2.09961 2.05078-2.24609 4.93164-1.07422 6.88477 1.17188 1.80664 3.4668 2.97852 6.68945 2.14844 7.32422-1.70898 14.9414-2.00195 22.0703 2.68555l-2.92969 7.27539c-1.70898 4.15039-0.830078 7.08008 1.85547 9.81445l11.4746 11.5723c2.44141 2.44141 4.49219 2.53906 7.32422 2.05078l5.32227-0.976562 3.32031 3.36914-0.195312 2.7832c-0.195312 2.49023 0.439453 4.39453 2.88086 6.78711l3.80859 3.71094c2.39258 2.39258 5.46875 2.53906 7.8125 0.195312l14.5508-14.5996c2.34375-2.34375 2.24609-5.32227-0.146484-7.71484l-3.85742-3.80859c-2.39258-2.39258-4.24805-3.17383-6.64062-2.97852l-2.88086 0.244141-3.22266-3.17383 1.2207-5.61523c0.634766-2.83203-0.146484-5.0293-3.07617-7.95898l-10.9863-10.9375c-16.6992-16.6016-38.8672-16.2109-53.3203-1.75781Zm7.4707 1.85547c12.1582-8.88672 28.6133-7.37305 39.7461 3.75977l12.1582 12.0605c1.17188 1.17188 1.36719 2.09961 1.02539 3.80859l-1.61133 7.42188 7.51953 7.42188 4.93164-0.292969c1.26953-0.0488281 1.66016 0.0488281 2.63672 1.02539l2.88086 2.88086-12.207 12.207-2.88086-2.88086c-0.976562-0.976562-1.12305-1.36719-1.07422-2.68555l0.341797-4.88281-7.4707-7.42188-7.61719 1.26953c-1.61133 0.341797-2.34375 0.195312-3.56445-0.976562l-10.0098-10.0098c-1.26953-1.17188-1.41602-2.00195-0.634766-3.85742l4.39453-10.4492c-7.8125-7.27539-17.9688-10.4004-28.125-7.42188-0.78125 0.195312-1.07422-0.439453-0.439453-0.976562Z"/>
  </g>
  <text style="stroke:none;fill:black;font-family:sans-serif;font-size:13;font-weight:bold;" transform="matrix(1 0 0 1 1289 1953)">Exporting</text>
  <text style="stroke:none;fill:black;font-family:sans-serif;font-size:13;" transform="matrix(1 0 0 1 1289 1971)">Symbols should be outlined when exporting to ensure the</text>
  <text style="stroke:none;fill:black;font-family:sans-serif;font-size:13;" transform="matrix(1 0 0 1 1289 1989)">design is preserved when submitting to Xcode.</text>
  <text id="template-version" style="stroke:none;fill:black;font-family:sans-serif;font-size:13;text-anchor:end;" transform="matrix(1 0 0 1 3036 1933)">Template v.5.0</text>
  <text style="stroke:none;fill:black;font-family:sans-serif;font-size:13;text-anchor:end;" transform="matrix(1 0 0 1 3036 1951)">Requires Xcode 15 or greater</text>
  <text id="descriptive-name" style="stroke:none;fill:black;font-family:sans-serif;font-size:13;text-anchor:end;" transform="matrix(1 0 0 1 3036 1969)">Generated from </text>
  <text style="stroke:none;fill:black;font-family:sans-serif;font-size:13;text-anchor:end;" transform="matrix(1 0 0 1 3036 1987)">Typeset at 100.0 points</text>
  <text style="stroke:none;fill:black;font-family:sans-serif;font-size:13;" transform="matrix(1 0 0 1 263 726)">Small</text>
  <text style="stroke:none;fill:black;font-family:sans-serif;font-size:13;" transform="matrix(1 0 0 1 263 1156)">Medium</text>
  <text style="stroke:none;fill:black;font-family:sans-serif;font-size:13;" transform="matrix(1 0 0 1 263 1586)">Large</text>
 </g>
 <g id="Guides">
  <g id="H-reference" style="fill:#27AAE1;stroke:none;" transform="matrix(1 0 0 1 339 696)">
   <path d="M0.993654 0L3.63775 0L29.3281-67.1323L30.0303-67.1323L30.0303-70.459L28.1226-70.459ZM11.6885-24.4799L46.9815-24.4799L46.2315-26.7285L12.4385-26.7285ZM55.1196 0L57.7637 0L30.6382-70.459L29.4326-70.459L29.4326-67.1323Z"/>
  </g>
  <line id="Baseline-S" style="fill:none;stroke:#27AAE1;opacity:1;stroke-width:0.5;" x1="263" x2="3036" y1="696" y2="696"/>
  <line id="Capline-S" style="fill:none;stroke:#27AAE1;opacity:1;stroke-width:0.5;" x1="263" x2="3036" y1="625.541" y2="625.541"/>
  <g id="H-reference" style="fill:#27AAE1;stroke:none;" transform="matrix(1 0 0 1 339 1126)">
   <path d="M0.993654 0L3.63775 0L29.3281-67.1323L30.0303-67.1323L30.0303-70.459L28.1226-70.459ZM11.6885-24.4799L46.9815-24.4799L46.2315-26.7285L12.4385-26.7285ZM55.1196 0L57.7637 0L30.6382-70.459L29.4326-70.459L29.4326-67.1323Z"/>
  </g>
  <line id="Baseline-M" style="fill:none;stroke:#27AAE1;opacity:1;stroke-width:0.5;" x1="263" x2="3036" y1="1126" y2="1126"/>
  <line id="Capline-M" style="fill:none;stroke:#27AAE1;opacity:1;stroke-width:0.5;" x1="263" x2="3036" y1="1055.54" y2="1055.54"/>
  <g id="H-reference" style="fill:#27AAE1;stroke:none;" transform="matrix(1 0 0 1 339 1556)">
   <path d="M0.993654 0L3.63775 0L29.3281-67.1323L30.0303-67.1323L30.0303-70.459L28.1226-70.459ZM11.6885-24.4799L46.9815-24.4799L46.2315-26.7285L12.4385-26.7285ZM55.1196 0L57.7637 0L30.6382-70.459L29.4326-70.459L29.4326-67.1323Z"/>
  </g>
  <line id="Baseline-L" style="fill:none;stroke:#27AAE1;opacity:1;stroke-width:0.5;" x1="263" x2="3036" y1="1556" y2="1556"/>
  <line id="Capline-L" style="fill:none;stroke:#27AAE1;opacity:1;stroke-width:0.5;" x1="263" x2="3036" y1="1485.54" y2="1485.54"/>
  <line id="left-margin-Ultralight-S" style="fill:none;stroke:#00AEEF;stroke-width:0.5;opacity:1.0;" x1="513.207" x2="513.207" y1="600.785" y2="720.121"/>
  <line id="right-margin-Ultralight-S" style="fill:none;stroke:#00AEEF;stroke-width:0.5;opacity:1.0;" x1="606.215" x2="606.215" y1="600.785" y2="720.121"/>
  <line id="left-margin-Regular-S" style="fill:none;stroke:#00AEEF;stroke-width:0.5;opacity:1.0;" x1="1401.14" x2="1401.14" y1="600.785" y2="720.121"/>
  <line id="right-margin-Regular-S" style="fill:none;stroke:#00AEEF;stroke-width:0.5;opacity:1.0;" x1="1498.55" x2="1498.55" y1="600.785" y2="720.121"/>
  <line id="left-margin-Black-S" style="fill:none;stroke:#00AEEF;stroke-width:0.5;opacity:1.0;" x1="2879.69" x2="2879.69" y1="600.785" y2="720.121"/>
  <line id="right-margin-Black-S" style="fill:none;stroke:#00AEEF;stroke-width:0.5;opacity:1.0;" x1="2987.11" x2="2987.11" y1="600.785" y2="720.121"/>
 </g>
 <g id="Symbols">
  <g id="Black-S" transform="matrix(1 0 0 1 2879.69 696)">
   <path class="monochrome-0 multicolor-0:tintColor hierarchical-0:secondary SFSymbolsPreviewWireframe" d="M40.7715-3.56445L91.3086-3.56445C94.8242-3.56445 97.6562-6.34766 97.6562-9.91211C97.6562-13.4277 94.873-16.2598 91.3086-16.2598L40.7715-16.2598C37.2559-16.2598 34.4238-13.4766 34.4238-9.91211C34.4238-6.39648 37.207-3.56445 40.7715-3.56445Z"/>
   <path class="monochrome-1 multicolor-1:tintColor hierarchical-1:secondary SFSymbolsPreviewWireframe" d="M17.9688-1.70898C22.4609-1.70898 26.1719-5.41992 26.1719-9.91211C26.1719-14.4043 22.4609-18.1152 17.9688-18.1152C13.4766-18.1152 9.76562-14.4043 9.76562-9.91211C9.76562-5.41992 13.4766-1.70898 17.9688-1.70898Z"/>
   <path class="monochrome-2 multicolor-2:tintColor hierarchical-2:secondary SFSymbolsPreviewWireframe" d="M40.7715-28.8574L91.3086-28.8574C94.8242-28.8574 97.6562-31.6406 97.6562-35.2051C97.6562-38.7207 94.873-41.5527 91.3086-41.5527L40.7715-41.5527C37.2559-41.5527 34.4238-38.7695 34.4238-35.2051C34.4238-31.6895 37.207-28.8574 40.7715-28.8574Z"/>
   <path class="monochrome-3 multicolor-3:tintColor hierarchical-3:secondary SFSymbolsPreviewWireframe" d="M17.9688-27.002C22.4609-27.002 26.1719-30.7129 26.1719-35.2051C26.1719-39.6973 22.4609-43.4082 17.9688-43.4082C13.4766-43.4082 9.76562-39.6973 9.76562-35.2051C9.76562-30.7129 13.4766-27.002 17.9688-27.002Z"/>
   <path class="monochrome-4 multicolor-4:tintColor hierarchical-4:secondary SFSymbolsPreviewWireframe" d="M40.7715-54.1504L91.3086-54.1504C94.8242-54.1504 97.6562-56.9336 97.6562-60.498C97.6562-64.0137 94.873-66.8457 91.3086-66.8457L40.7715-66.8457C37.2559-66.8457 34.4238-64.0625 34.4238-60.498C34.4238-56.9824 37.207-54.1504 40.7715-54.1504Z"/>
   <path class="monochrome-5 multicolor-5:tintColor hierarchical-5:secondary SFSymbolsPreviewWireframe" d="M17.9688-52.2949C22.4609-52.2949 26.1719-56.0059 26.1719-60.498C26.1719-64.9902 22.4609-68.7012 17.9688-68.7012C13.4766-68.7012 9.76562-64.9902 9.76562-60.498C9.76562-56.0059 13.4766-52.2949 17.9688-52.2949Z"/>
   <path class="monochrome-6 multicolor-6:tintColor hierarchical-6:primary SFSymbolsPreviewWireframe" d="M22.9933-78.9962L97.7062-4.28328L97.7062-4.28328C101.373-0.616258 101.373 5.32916 97.7062 8.99618L97.7062 8.99618L97.7062 8.99618C94.0392 12.6632 88.0937 12.6632 84.4267 8.99618L9.71382-65.7167L9.71382-65.7167C6.04679-69.3837 6.04679-75.3292 9.71382-78.9962L9.71382-78.9962L9.71382-78.9962C13.3808-82.6632 19.3263-82.6632 22.9933-78.9962Z"/>
   <path class="monochrome-7 multicolor-7:tintColor hierarchical-7:primary SFSymbolsPreviewWireframe" d="M18.8426-74.8455L93.5555-0.132565L93.5555-0.132565C94.9301 1.24208 94.9301 3.47082 93.5555 4.84547L93.5555 4.84547L93.5555 4.84547C92.1808 6.22011 89.9521 6.22011 88.5774 4.84547L13.8645-69.8674L13.8645-69.8674C12.4899-71.2421 12.4899-73.4708 13.8645-74.8455L13.8645-74.8455L13.8645-74.8455C15.2392-76.2201 17.4679-76.2201 18.8426-74.8455Z"/>
  </g>
  <g id="Regular-S" transform="matrix(1 0 0 1 1401.14 696)">
   <path class="monochrome-0 multicolor-0:tintColor hierarchical-0:secondary SFSymbolsPreviewWireframe" d="M32.0312-8.39844L84.1309-8.39844C86.084-8.39844 87.6465-9.96094 87.6465-11.9141C87.6465-13.8672 86.084-15.4297 84.1309-15.4297L32.0312-15.4297C30.0781-15.4297 28.5156-13.8672 28.5156-11.9141C28.5156-9.96094 30.0781-8.39844 32.0312-8.39844Z"/>
   <path class="monochrome-1 multicolor-1:tintColor hierarchical-1:secondary SFSymbolsPreviewWireframe" d="M14.7461-6.93359C17.4805-6.93359 19.7266-9.17969 19.7266-11.9141C19.7266-14.6484 17.4805-16.8945 14.7461-16.8945C12.0117-16.8945 9.76562-14.6484 9.76562-11.9141C9.76562-9.17969 12.0117-6.93359 14.7461-6.93359Z"/>
   <path class="monochrome-2 multicolor-2:tintColor hierarchical-2:secondary SFSymbolsPreviewWireframe" d="M32.0312-31.6895L84.1309-31.6895C86.084-31.6895 87.6465-33.252 87.6465-35.2051C87.6465-37.1582 86.084-38.7207 84.1309-38.7207L32.0312-38.7207C30.0781-38.7207 28.5156-37.1582 28.5156-35.2051C28.5156-33.252 30.0781-31.6895 32.0312-31.6895Z"/>
   <path class="monochrome-3 multicolor-3:tintColor hierarchical-3:secondary SFSymbolsPreviewWireframe" d="M14.7461-30.2246C17.4805-30.2246 19.7266-32.4707 19.7266-35.2051C19.7266-37.9395 17.4805-40.1855 14.7461-40.1855C12.0117-40.1855 9.76562-37.9395 9.76562-35.2051C9.76562-32.4707 12.0117-30.2246 14.7461-30.2246Z"/>
   <path class="monochrome-4 multicolor-4:tintColor hierarchical-4:secondary SFSymbolsPreviewWireframe" d="M32.0312-54.9805L84.1309-54.9805C86.084-54.9805 87.6465-56.543 87.6465-58.4961C87.6465-60.4492 86.084-62.0117 84.1309-62.0117L32.0312-62.0117C30.0781-62.0117 28.5156-60.4492 28.5156-58.4961C28.5156-56.543 30.0781-54.9805 32.0312-54.9805Z"/>
   <path class="monochrome-5 multicolor-5:tintColor hierarchical-5:secondary SFSymbolsPreviewWireframe" d="M14.7461-53.5156C17.4805-53.5156 19.7266-55.7617 19.7266-58.4961C19.7266-61.2305 17.4805-63.4766 14.7461-63.4766C12.0117-63.4766 9.76562-61.2305 9.76562-58.4961C9.76562-55.7617 12.0117-53.5156 14.7461-53.5156Z"/>
   <path class="monochrome-6 multicolor-6:tintColor hierarchical-6:primary SFSymbolsPreviewWireframe" d="M19.3848-75.8955L89.6005-5.67982L89.6005-5.67982C92.797-2.48338 92.797 2.69908 89.6005 5.89552L89.6005 5.89552L89.6005 5.89552C86.4041 9.09196 81.2216 9.09196 78.0252 5.89552L7.80948-64.3202L7.80948-64.3202C4.61304-67.5166 4.61304-72.6991 7.80948-75.8955L7.80948-75.8955L7.80948-75.8955C11.0059-79.092 16.1884-79.092 19.3848-75.8955Z"/>
   <path class="monochrome-7 multicolor-7:tintColor hierarchical-7:primary SFSymbolsPreviewWireframe" d="M15.9907-72.5014L86.2064-2.2857L86.2064-2.2857C87.5283-0.96378 87.5283 1.17948 86.2064 2.50141L86.2064 2.50141L86.2064 2.50141C84.8845 3.82333 82.7412 3.82333 81.4193 2.50141L11.2036-67.7143L11.2036-67.7143C9.88167-69.0362 9.88167-71.1795 11.2036-72.5014L11.2036-72.5014L11.2036-72.5014C12.5255-73.8233 14.6688-73.8233 15.9907-72.5014Z"/>
  </g>
  <g id="Ultralight-S" transform="matrix(1 0 0 1 513.207 696)">
   <path class="monochrome-0 multicolor-0:tintColor hierarchical-0:secondary SFSymbolsPreviewWireframe" d="M28.9888-11.7134L82.1328-11.7134C82.7691-11.7134 83.2417-12.1406 83.2417-12.7768C83.2417-13.4585 82.7691-13.8858 82.1328-13.8858L28.9888-13.8858C28.3071-13.8858 27.8799-13.4585 27.8799-12.7768C27.8799-12.1406 28.3071-11.7134 28.9888-11.7134Z"/>
   <path class="monochrome-1 multicolor-1:tintColor hierarchical-1:secondary SFSymbolsPreviewWireframe" d="M13.8833-8.70458C16.1182-8.70458 17.9556-10.542 17.9556-12.7768C17.9556-15.0571 16.1182-16.8945 13.8833-16.8945C11.603-16.8945 9.76562-15.0571 9.76562-12.7768C9.76562-10.542 11.603-8.70458 13.8833-8.70458Z"/>
   <path class="monochrome-2 multicolor-2:tintColor hierarchical-2:secondary SFSymbolsPreviewWireframe" d="M28.9888-34.0962L82.1328-34.0962C82.7691-34.0962 83.2417-34.5688 83.2417-35.2051C83.2417-35.8413 82.7691-36.314 82.1328-36.314L28.9888-36.314C28.3071-36.314 27.8799-35.8413 27.8799-35.2051C27.8799-34.5688 28.3071-34.0962 28.9888-34.0962Z"/>
   <path class="monochrome-3 multicolor-3:tintColor hierarchical-3:secondary SFSymbolsPreviewWireframe" d="M13.8833-31.0874C16.1182-31.0874 17.9556-32.9248 17.9556-35.2051C17.9556-37.4854 16.1182-39.3228 13.8833-39.3228C11.603-39.3228 9.76562-37.4854 9.76562-35.2051C9.76562-32.9248 11.603-31.0874 13.8833-31.0874Z"/>
   <path class="monochrome-4 multicolor-4:tintColor hierarchical-4:secondary SFSymbolsPreviewWireframe" d="M28.9888-56.5244L82.1328-56.5244C82.7691-56.5244 83.2417-56.9517 83.2417-57.6333C83.2417-58.2695 82.7691-58.6968 82.1328-58.6968L28.9888-58.6968C28.3071-58.6968 27.8799-58.2695 27.8799-57.6333C27.8799-56.9517 28.3071-56.5244 28.9888-56.5244Z"/>
   <path class="monochrome-5 multicolor-5:tintColor hierarchical-5:secondary SFSymbolsPreviewWireframe" d="M13.8833-53.5156C16.1182-53.5156 17.9556-55.353 17.9556-57.6333C17.9556-59.8682 16.1182-61.7056 13.8833-61.7056C11.603-61.7056 9.76562-59.8682 9.76562-57.6333C9.76562-55.353 11.603-53.5156 13.8833-53.5156Z"/>
   <path class="monochrome-6 multicolor-6:tintColor hierarchical-6:primary SFSymbolsPreviewWireframe" d="M14.511-72.862L84.366-3.00695L84.366-3.00695C85.9867-1.38628 85.9867 1.24136 84.366 2.86203L84.366 2.86203L84.366 2.86203C82.7454 4.48271 80.1177 4.48271 78.497 2.86203L8.64197-66.993L8.64197-66.993C7.02129-68.6137 7.02129-71.2414 8.64197-72.862L8.64197-72.862L8.64197-72.862C10.2626-74.4827 12.8903-74.4827 14.511-72.862Z"/>
   <path class="monochrome-7 multicolor-7:tintColor hierarchical-7:primary SFSymbolsPreviewWireframe" d="M12.3684-70.7195L82.2235-0.86442L82.2235-0.86442C82.6609-0.427033 82.6609 0.282112 82.2235 0.719499L82.2235 0.719499L82.2235 0.719499C81.7861 1.15689 81.077 1.15689 80.6396 0.719499L10.7845-69.1356L10.7845-69.1356C10.3471-69.573 10.3471-70.2821 10.7845-70.7195L10.7845-70.7195L10.7845-70.7195C11.2219-71.1569 11.931-71.1569 12.3684-70.7195Z"/>
  </g>
 </g>
</svg>
